<svg preserveAspectRatio="none" width="100%" height="100%" overflow="visible" style="display: block;" viewBox="0 0 26 39" fill="none" xmlns="http://www.w3.org/2000/svg">
<g id="Union">
<mask id="path-1-inside-1_0_79" fill="white">
<path fill-rule="evenodd" clip-rule="evenodd" d="M0 0H13H26V13H13V26H26V39H13H0V26V13V0Z"/>
</mask>
<path d="M0 0V-1H-1V0H0ZM26 0H27V-1H26V0ZM26 13V14H27V13H26ZM13 13V12H12V13H13ZM13 26H12V27H13V26ZM26 26H27V25H26V26ZM26 39V40H27V39H26ZM0 39H-1V40H0V39ZM13 0V-1H0V0V1H13V0ZM26 0V-1H13V0V1H26V0ZM26 13H27V0H26H25V13H26ZM13 13V14H26V13V12H13V13ZM13 26H14V13H13H12V26H13ZM13 26V27H26V26V25H13V26ZM26 26H25V39H26H27V26H26ZM26 39V38H13V39V40H26V39ZM0 39V40H13V39V38H0V39ZM0 26H-1V39H0H1V26H0ZM0 13H-1V26H0H1V13H0ZM0 0H-1V13H0H1V0H0Z" fill="var(--stroke-0, #C778DD)" mask="url(#path-1-inside-1_0_79)"/>
</g>
</svg>
